<?xml version="1.0" standalone="no"?>
<!DOCTYPE svg PUBLIC "-//W3C//DTD SVG 20010904//EN"
 "http://www.w3.org/TR/2001/REC-SVG-20010904/DTD/svg10.dtd">
<svg version="1.0" xmlns="http://www.w3.org/2000/svg"
 width="501.000000pt" height="501.000000pt" viewBox="0 0 501.000000 501.000000"
 preserveAspectRatio="xMidYMid meet">
<metadata>
Created by potrace 1.14, written by Peter Selinger 2001-2017
</metadata>
<g transform="translate(0.000000,501.000000) scale(0.100000,-0.100000)"
fill="#000000" stroke="none">
<path d="M2299 4446 c-2 -2 -42 -6 -89 -10 -47 -3 -94 -8 -105 -10 -11 -2 -42
-7 -70 -10 -46 -7 -228 -41 -267 -51 -10 -3 -26 -7 -37 -9 -10 -2 -51 -14 -92
-26 -508 -149 -950 -425 -1234 -770 -20 -25 -44 -54 -54 -65 -18 -22 -67 -96
-122 -185 -84 -134 -185 -399 -204 -535 -4 -27 -10 -59 -12 -70 -13 -52 -10
-346 3 -435 31 -198 120 -450 206 -577 15 -23 28 -45 28 -48 0 -8 104 -157
123 -177 7 -7 25 -29 41 -48 73 -90 197 -210 310 -299 92 -73 221 -161 235
-161 5 0 11 -4 13 -9 3 -10 258 -142 346 -179 150 -63 474 -160 592 -177 25
-3 52 -8 60 -10 14 -4 76 -13 130 -20 236 -30 631 -28 845 5 33 5 77 11 99 15
132 19 447 103 508 136 10 5 24 9 32 9 8 0 27 7 43 15 15 8 66 31 113 51 112
47 252 123 370 199 500 325 814 786 888 1300 9 67 8 335 -2 410 -16 121 -80
346 -120 420 -5 11 -11 22 -11 25 -1 11 -79 156 -113 209 -119 188 -322 408
-486 526 -15 11 -51 37 -79 59 -189 140 -521 299 -802 382 -93 27 -315 77
-395 88 -25 3 -63 8 -85 11 -22 3 -56 8 -75 11 -40 5 -526 15 -531 10z"/>
</g>
</svg>
