<svg width="154" height="41" viewBox="0 0 154 41" fill="none" xmlns="http://www.w3.org/2000/svg">
<path d="M20 40.5C31.0457 40.5 40 31.5457 40 20.5C40 9.4543 31.0457 0.5 20 0.5C8.9543 0.5 0 9.4543 0 20.5C0 31.5457 8.9543 40.5 20 40.5Z" fill="#3056D3"/>
<path d="M18.336 12.292V16.252C18.336 21.616 14.412 25.54 8.868 27.016L10.308 29.356C16.392 27.52 20.784 23.02 20.784 16.252V12.292H18.336ZM18.876 12.292V16.252C18.876 23.02 23.268 27.52 29.316 29.356L30.756 27.016C25.248 25.54 21.288 21.616 21.288 16.252V12.292H18.876ZM9.768 11.644V14.056H29.892V11.644H9.768Z" fill="white"/>
<path d="M50.3047 23.6875C50.3047 23.2891 50.2578 22.9375 50.1641 22.6328C50.0703 22.3203 49.9062 22.0391 49.6719 21.7891C49.4375 21.5391 49.1094 21.3008 48.6875 21.0742C48.2656 20.8477 47.7305 20.6172 47.082 20.3828C46.3789 20.1328 45.7422 19.8555 45.1719 19.5508C44.6016 19.2383 44.1133 18.8828 43.707 18.4844C43.3086 18.0859 43 17.6289 42.7812 17.1133C42.5625 16.5977 42.4531 16.0078 42.4531 15.3438C42.4531 14.6797 42.5664 14.0664 42.793 13.5039C43.0273 12.9414 43.3555 12.4531 43.7773 12.0391C44.207 11.6172 44.7227 11.2891 45.3242 11.0547C45.9258 10.8203 46.5977 10.7031 47.3398 10.7031C48.4492 10.7031 49.3828 10.9492 50.1406 11.4414C50.9062 11.9258 51.4844 12.5625 51.875 13.3516C52.2656 14.1328 52.4609 14.9688 52.4609 15.8594H50.3047C50.3047 15.2188 50.1992 14.6523 49.9883 14.1602C49.7852 13.6602 49.4648 13.2695 49.0273 12.9883C48.5977 12.6992 48.0352 12.5547 47.3398 12.5547C46.7148 12.5547 46.1992 12.6758 45.793 12.918C45.3945 13.1602 45.0977 13.4883 44.9023 13.9023C44.7148 14.3164 44.6211 14.7891 44.6211 15.3203C44.6211 15.6797 44.6836 16.0078 44.8086 16.3047C44.9336 16.5938 45.125 16.8633 45.3828 17.1133C45.6484 17.3633 45.9766 17.5938 46.3672 17.8047C46.7656 18.0156 47.2344 18.2188 47.7734 18.4141C48.6094 18.6875 49.3242 18.9922 49.918 19.3281C50.5117 19.6641 50.9961 20.043 51.3711 20.4648C51.7461 20.8789 52.0195 21.3516 52.1914 21.8828C52.3711 22.4062 52.4609 23 52.4609 23.6641C52.4609 24.3594 52.3438 24.9883 52.1094 25.5508C51.8828 26.1133 51.5508 26.5938 51.1133 26.9922C50.6758 27.3906 50.1484 27.6992 49.5312 27.918C48.9141 28.1289 48.2188 28.2344 47.4453 28.2344C46.7734 28.2344 46.1133 28.125 45.4648 27.9062C44.8242 27.6875 44.2422 27.3594 43.7188 26.9219C43.1953 26.4844 42.7773 25.9453 42.4648 25.3047C42.1523 24.6562 41.9961 23.9062 41.9961 23.0547H44.1523C44.1523 23.6406 44.2383 24.1445 44.4102 24.5664C44.582 24.9805 44.8203 25.3242 45.125 25.5977C45.4297 25.8711 45.7773 26.0742 46.168 26.207C46.5664 26.332 46.9922 26.3945 47.4453 26.3945C48.0703 26.3945 48.5938 26.2852 49.0156 26.0664C49.4453 25.8477 49.7656 25.5352 49.9766 25.1289C50.1953 24.7227 50.3047 24.2422 50.3047 23.6875ZM54.5248 10.9375H56.6108L61.0756 24.8477L65.5287 10.9375H67.6147L61.8842 28H60.2436L54.5248 10.9375ZM53.8452 10.9375H55.6733L55.9897 21.3438V28H53.8452V10.9375ZM66.4545 10.9375H68.2827V28H66.1381V21.3438L66.4545 10.9375ZM76.288 12.4492L71.6239 28H69.4208L74.9169 10.9375H76.2997L76.288 12.4492ZM80.0614 28L75.3973 12.4492L75.3739 10.9375H76.7684L82.2645 28H80.0614ZM80.0614 21.6836V23.5352H71.8348V21.6836H80.0614ZM83.18 10.9375H87.9495C89.0589 10.9375 89.9886 11.1328 90.7386 11.5234C91.4964 11.9141 92.0667 12.4922 92.4495 13.2578C92.8402 14.0156 93.0355 14.9492 93.0355 16.0586C93.0355 16.8398 92.9066 17.5547 92.6488 18.2031C92.3909 18.8438 92.0159 19.3906 91.5238 19.8438C91.0316 20.2891 90.4339 20.6211 89.7308 20.8398L89.1448 21.0859H84.8909L84.8675 19.2461H87.9261C88.5823 19.2461 89.1292 19.1055 89.5667 18.8242C90.0042 18.5352 90.3323 18.1484 90.5511 17.6641C90.7698 17.1797 90.8792 16.6445 90.8792 16.0586C90.8792 15.4023 90.7816 14.8281 90.5863 14.3359C90.3909 13.8438 90.0784 13.4648 89.6488 13.1992C89.2269 12.9258 88.6605 12.7891 87.9495 12.7891H85.3363V28H83.18V10.9375ZM91.3714 28L87.973 20.2656L90.2113 20.2539L93.68 27.8594V28H91.3714ZM99.0252 10.9375V28H96.8923V10.9375H99.0252ZM103.513 10.9375V12.7891H92.4158V10.9375H103.513ZM107.675 23.0195V10.9375H109.82V23.0195C109.82 24.1445 109.624 25.0938 109.234 25.8672C108.843 26.6406 108.3 27.2305 107.605 27.6367C106.917 28.0352 106.124 28.2344 105.226 28.2344C104.343 28.2344 103.554 28.0547 102.859 27.6953C102.163 27.3359 101.616 26.7891 101.218 26.0547C100.827 25.3203 100.632 24.3945 100.632 23.2773H102.788C102.788 23.9961 102.894 24.5859 103.105 25.0469C103.323 25.5078 103.616 25.8477 103.984 26.0664C104.351 26.2852 104.765 26.3945 105.226 26.3945C105.695 26.3945 106.112 26.2695 106.48 26.0195C106.847 25.7617 107.136 25.3828 107.347 24.8828C107.566 24.375 107.675 23.7539 107.675 23.0195ZM114.192 10.9375V28H112.036V10.9375H114.192ZM127.658 10.9375V28H125.49L118.658 14.8398V28H116.502V10.9375H118.658L125.525 24.1328V10.9375H127.658ZM141.101 10.9375V28H138.933L132.101 14.8398V28H129.945V10.9375H132.101L138.968 24.1328V10.9375H141.101ZM144.02 10.9375L147.501 19.5039L150.993 10.9375H153.431L148.579 21.625V28H146.423V21.625L141.571 10.9375H144.02Z" fill="black"/>
</svg>
